<mxfile host="app.diagrams.net" modified="2021-12-16T07:30:54.413Z" agent="5.0 (Macintosh)" etag="wFj3DsWxhITEntCCa7y1" version="15.9.6" type="github">
  <diagram name="Page-1" id="58cdce13-f638-feb5-8d6f-7d28b1aa9fa0">
    <mxGraphModel dx="1651" dy="-153" grid="1" gridSize="10" guides="1" tooltips="1" connect="1" arrows="1" fold="1" page="1" pageScale="1" pageWidth="1100" pageHeight="850" background="none" math="0" shadow="0">
      <root>
        <mxCell id="0" />
        <mxCell id="1" parent="0" />
        <mxCell id="Z_8boHkTPZOUTOE4GX1p-10" value="采集任务" style="shape=umlFrame;whiteSpace=wrap;html=1;" vertex="1" parent="1">
          <mxGeometry x="40" y="880" width="795" height="1000" as="geometry" />
        </mxCell>
        <mxCell id="Z_8boHkTPZOUTOE4GX1p-28" value="" style="ellipse;html=1;shape=startState;fillColor=#000000;strokeColor=#ff0000;" vertex="1" parent="1">
          <mxGeometry x="175" y="910" width="30" height="30" as="geometry" />
        </mxCell>
        <mxCell id="Z_8boHkTPZOUTOE4GX1p-29" value="" style="edgeStyle=orthogonalEdgeStyle;html=1;verticalAlign=bottom;endArrow=open;endSize=8;strokeColor=#ff0000;rounded=0;" edge="1" source="Z_8boHkTPZOUTOE4GX1p-28" parent="1">
          <mxGeometry relative="1" as="geometry">
            <mxPoint x="190" y="1000" as="targetPoint" />
          </mxGeometry>
        </mxCell>
        <mxCell id="Z_8boHkTPZOUTOE4GX1p-45" value="创建任务" style="edgeLabel;html=1;align=center;verticalAlign=middle;resizable=0;points=[];" vertex="1" connectable="0" parent="Z_8boHkTPZOUTOE4GX1p-29">
          <mxGeometry x="-0.1111" relative="1" as="geometry">
            <mxPoint as="offset" />
          </mxGeometry>
        </mxCell>
        <mxCell id="Z_8boHkTPZOUTOE4GX1p-30" value="启用" style="rhombus;whiteSpace=wrap;html=1;fillColor=#ffffc0;strokeColor=#ff0000;" vertex="1" parent="1">
          <mxGeometry x="150" y="1120" width="80" height="40" as="geometry" />
        </mxCell>
        <mxCell id="Z_8boHkTPZOUTOE4GX1p-31" value="no" style="edgeStyle=orthogonalEdgeStyle;html=1;align=left;verticalAlign=bottom;endArrow=open;endSize=8;strokeColor=#ff0000;rounded=0;entryX=0;entryY=0.5;entryDx=0;entryDy=0;" edge="1" source="Z_8boHkTPZOUTOE4GX1p-30" parent="1" target="Z_8boHkTPZOUTOE4GX1p-33">
          <mxGeometry x="-1" relative="1" as="geometry">
            <mxPoint x="305" y="1230" as="targetPoint" />
          </mxGeometry>
        </mxCell>
        <mxCell id="Z_8boHkTPZOUTOE4GX1p-32" value="yes" style="edgeStyle=orthogonalEdgeStyle;html=1;align=left;verticalAlign=top;endArrow=open;endSize=8;strokeColor=#ff0000;rounded=0;entryX=0.5;entryY=0;entryDx=0;entryDy=0;" edge="1" source="Z_8boHkTPZOUTOE4GX1p-30" parent="1" target="Z_8boHkTPZOUTOE4GX1p-38">
          <mxGeometry x="-1" relative="1" as="geometry">
            <mxPoint x="200" y="1300" as="targetPoint" />
          </mxGeometry>
        </mxCell>
        <mxCell id="Z_8boHkTPZOUTOE4GX1p-36" value="" style="edgeStyle=orthogonalEdgeStyle;rounded=0;orthogonalLoop=1;jettySize=auto;html=1;strokeColor=#FF3333;" edge="1" parent="1" source="Z_8boHkTPZOUTOE4GX1p-33" target="Z_8boHkTPZOUTOE4GX1p-35">
          <mxGeometry relative="1" as="geometry" />
        </mxCell>
        <mxCell id="Z_8boHkTPZOUTOE4GX1p-37" value="删除" style="edgeLabel;html=1;align=center;verticalAlign=middle;resizable=0;points=[];" vertex="1" connectable="0" parent="Z_8boHkTPZOUTOE4GX1p-36">
          <mxGeometry x="0.0275" y="-1" relative="1" as="geometry">
            <mxPoint x="-1" as="offset" />
          </mxGeometry>
        </mxCell>
        <mxCell id="Z_8boHkTPZOUTOE4GX1p-52" value="启用" style="edgeStyle=orthogonalEdgeStyle;rounded=0;orthogonalLoop=1;jettySize=auto;html=1;strokeColor=#FF3333;" edge="1" parent="1" source="Z_8boHkTPZOUTOE4GX1p-33" target="Z_8boHkTPZOUTOE4GX1p-38">
          <mxGeometry relative="1" as="geometry">
            <Array as="points">
              <mxPoint x="385" y="1270" />
            </Array>
          </mxGeometry>
        </mxCell>
        <mxCell id="Z_8boHkTPZOUTOE4GX1p-33" value="停用/未同步任务" style="rounded=1;whiteSpace=wrap;html=1;arcSize=40;fontColor=#000000;fillColor=#ffffc0;strokeColor=#ff0000;" vertex="1" parent="1">
          <mxGeometry x="325" y="1120" width="120" height="40" as="geometry" />
        </mxCell>
        <mxCell id="Z_8boHkTPZOUTOE4GX1p-35" value="" style="ellipse;html=1;shape=endState;fillColor=#000000;strokeColor=#ff0000;" vertex="1" parent="1">
          <mxGeometry x="545" y="1125" width="30" height="30" as="geometry" />
        </mxCell>
        <mxCell id="Z_8boHkTPZOUTOE4GX1p-38" value="语法校验" style="rounded=1;whiteSpace=wrap;html=1;arcSize=40;fontColor=#000000;fillColor=#ffffc0;strokeColor=#ff0000;" vertex="1" parent="1">
          <mxGeometry x="130" y="1250" width="120" height="40" as="geometry" />
        </mxCell>
        <mxCell id="Z_8boHkTPZOUTOE4GX1p-39" value="" style="edgeStyle=orthogonalEdgeStyle;html=1;verticalAlign=bottom;endArrow=open;endSize=8;strokeColor=#ff0000;rounded=0;entryX=0.5;entryY=0;entryDx=0;entryDy=0;" edge="1" source="Z_8boHkTPZOUTOE4GX1p-38" parent="1" target="Z_8boHkTPZOUTOE4GX1p-42">
          <mxGeometry relative="1" as="geometry">
            <mxPoint x="190" y="1360" as="targetPoint" />
          </mxGeometry>
        </mxCell>
        <mxCell id="Z_8boHkTPZOUTOE4GX1p-42" value="正确" style="rhombus;whiteSpace=wrap;html=1;fillColor=#ffffc0;strokeColor=#ff0000;" vertex="1" parent="1">
          <mxGeometry x="150" y="1350" width="80" height="40" as="geometry" />
        </mxCell>
        <mxCell id="Z_8boHkTPZOUTOE4GX1p-43" value="no" style="edgeStyle=orthogonalEdgeStyle;html=1;align=left;verticalAlign=bottom;endArrow=open;endSize=8;strokeColor=#ff0000;rounded=0;entryX=0;entryY=0.5;entryDx=0;entryDy=0;" edge="1" source="Z_8boHkTPZOUTOE4GX1p-42" parent="1">
          <mxGeometry x="-1" relative="1" as="geometry">
            <mxPoint x="335" y="1370" as="targetPoint" />
          </mxGeometry>
        </mxCell>
        <mxCell id="Z_8boHkTPZOUTOE4GX1p-44" value="yes" style="edgeStyle=orthogonalEdgeStyle;html=1;align=left;verticalAlign=top;endArrow=open;endSize=8;strokeColor=#ff0000;rounded=0;exitX=0.5;exitY=1;exitDx=0;exitDy=0;entryX=0.5;entryY=0;entryDx=0;entryDy=0;" edge="1" source="Z_8boHkTPZOUTOE4GX1p-42" parent="1" target="Z_8boHkTPZOUTOE4GX1p-55">
          <mxGeometry x="-1" relative="1" as="geometry">
            <mxPoint x="190" y="1505" as="targetPoint" />
            <Array as="points" />
          </mxGeometry>
        </mxCell>
        <mxCell id="Z_8boHkTPZOUTOE4GX1p-48" value="保存任务" style="rounded=1;whiteSpace=wrap;html=1;arcSize=40;fontColor=#000000;fillColor=#ffffc0;strokeColor=#ff0000;" vertex="1" parent="1">
          <mxGeometry x="130" y="1000" width="120" height="40" as="geometry" />
        </mxCell>
        <mxCell id="Z_8boHkTPZOUTOE4GX1p-49" value="" style="edgeStyle=orthogonalEdgeStyle;html=1;verticalAlign=bottom;endArrow=open;endSize=8;strokeColor=#ff0000;rounded=0;entryX=0.5;entryY=0;entryDx=0;entryDy=0;" edge="1" source="Z_8boHkTPZOUTOE4GX1p-48" parent="1" target="Z_8boHkTPZOUTOE4GX1p-30">
          <mxGeometry relative="1" as="geometry">
            <mxPoint x="595" y="1020" as="targetPoint" />
          </mxGeometry>
        </mxCell>
        <mxCell id="Z_8boHkTPZOUTOE4GX1p-55" value="下发任务到采集机" style="rounded=1;whiteSpace=wrap;html=1;arcSize=40;fontColor=#000000;fillColor=#ffffc0;strokeColor=#ff0000;" vertex="1" parent="1">
          <mxGeometry x="130" y="1470" width="120" height="40" as="geometry" />
        </mxCell>
        <mxCell id="Z_8boHkTPZOUTOE4GX1p-56" value="" style="edgeStyle=orthogonalEdgeStyle;html=1;verticalAlign=bottom;endArrow=open;endSize=8;strokeColor=#ff0000;rounded=0;" edge="1" source="Z_8boHkTPZOUTOE4GX1p-55" parent="1">
          <mxGeometry relative="1" as="geometry">
            <mxPoint x="190" y="1580" as="targetPoint" />
          </mxGeometry>
        </mxCell>
        <mxCell id="Z_8boHkTPZOUTOE4GX1p-57" value="成功" style="rhombus;whiteSpace=wrap;html=1;fillColor=#ffffc0;strokeColor=#ff0000;" vertex="1" parent="1">
          <mxGeometry x="150" y="1580" width="80" height="40" as="geometry" />
        </mxCell>
        <mxCell id="Z_8boHkTPZOUTOE4GX1p-58" value="no" style="edgeStyle=orthogonalEdgeStyle;html=1;align=left;verticalAlign=bottom;endArrow=open;endSize=8;strokeColor=#ff0000;rounded=0;entryX=0;entryY=0.5;entryDx=0;entryDy=0;" edge="1" source="Z_8boHkTPZOUTOE4GX1p-57" parent="1">
          <mxGeometry x="-1" relative="1" as="geometry">
            <mxPoint x="335" y="1600" as="targetPoint" />
          </mxGeometry>
        </mxCell>
        <mxCell id="Z_8boHkTPZOUTOE4GX1p-59" value="yes" style="edgeStyle=orthogonalEdgeStyle;html=1;align=left;verticalAlign=top;endArrow=open;endSize=8;strokeColor=#ff0000;rounded=0;" edge="1" source="Z_8boHkTPZOUTOE4GX1p-57" parent="1" target="Z_8boHkTPZOUTOE4GX1p-61">
          <mxGeometry x="-1" relative="1" as="geometry">
            <mxPoint x="190" y="1680" as="targetPoint" />
          </mxGeometry>
        </mxCell>
        <mxCell id="Z_8boHkTPZOUTOE4GX1p-70" style="edgeStyle=orthogonalEdgeStyle;rounded=0;orthogonalLoop=1;jettySize=auto;html=1;strokeColor=#FF3333;" edge="1" parent="1" source="Z_8boHkTPZOUTOE4GX1p-61">
          <mxGeometry relative="1" as="geometry">
            <mxPoint x="415" y="1160" as="targetPoint" />
            <Array as="points">
              <mxPoint x="415" y="1680" />
            </Array>
          </mxGeometry>
        </mxCell>
        <mxCell id="Z_8boHkTPZOUTOE4GX1p-71" value="停用" style="edgeLabel;html=1;align=center;verticalAlign=middle;resizable=0;points=[];" vertex="1" connectable="0" parent="Z_8boHkTPZOUTOE4GX1p-70">
          <mxGeometry x="0.0832" y="1" relative="1" as="geometry">
            <mxPoint as="offset" />
          </mxGeometry>
        </mxCell>
        <mxCell id="Z_8boHkTPZOUTOE4GX1p-61" value="启用/已同步任务" style="rounded=1;whiteSpace=wrap;html=1;arcSize=40;fontColor=#000000;fillColor=#ffffc0;strokeColor=#ff0000;" vertex="1" parent="1">
          <mxGeometry x="130" y="1660" width="120" height="40" as="geometry" />
        </mxCell>
        <mxCell id="Z_8boHkTPZOUTOE4GX1p-62" value="" style="edgeStyle=orthogonalEdgeStyle;html=1;verticalAlign=bottom;endArrow=open;endSize=8;strokeColor=#ff0000;rounded=0;" edge="1" source="Z_8boHkTPZOUTOE4GX1p-61" parent="1">
          <mxGeometry relative="1" as="geometry">
            <mxPoint x="190" y="1760" as="targetPoint" />
          </mxGeometry>
        </mxCell>
        <mxCell id="Z_8boHkTPZOUTOE4GX1p-63" value="" style="ellipse;html=1;shape=endState;fillColor=#000000;strokeColor=#ff0000;" vertex="1" parent="1">
          <mxGeometry x="175" y="1760" width="30" height="30" as="geometry" />
        </mxCell>
        <mxCell id="Z_8boHkTPZOUTOE4GX1p-67" value="" style="ellipse;html=1;shape=endState;fillColor=#000000;strokeColor=#ff0000;" vertex="1" parent="1">
          <mxGeometry x="335" y="1355" width="30" height="30" as="geometry" />
        </mxCell>
        <mxCell id="Z_8boHkTPZOUTOE4GX1p-68" value="" style="ellipse;html=1;shape=endState;fillColor=#000000;strokeColor=#ff0000;" vertex="1" parent="1">
          <mxGeometry x="335" y="1585" width="30" height="30" as="geometry" />
        </mxCell>
      </root>
    </mxGraphModel>
  </diagram>
</mxfile>
